<?xml version="1.0" encoding="UTF-8"?>
<!DOCTYPE svg PUBLIC "-//W3C//DTD SVG 1.1//EN" "http://www.w3.org/Graphics/SVG/1.1/DTD/svg11.dtd">
<svg xmlns="http://www.w3.org/2000/svg" xmlns:xlink="http://www.w3.org/1999/xlink" version="1.1" width="24" height="24" viewBox="0 0 24 24">
<defs>
  <linearGradient id="bg0" gradientTransform="rotate(-20)">
    <stop offset="0%" stop-color="rgb(238, 44, 235)"></stop>
    <stop offset="100%" stop-color="rgb(59, 200, 240)"></stop>
  </linearGradient>
    <linearGradient id="bg1" gradientTransform="rotate(60)">
    <stop offset="0%" stop-color="rgb(66,27,158)" stop-opacity="0"></stop>
    <stop offset="100%" stop-color="rgb(66,27,158)" stop-opacity="0.5"></stop>
  </linearGradient>
</defs>
<path fill="url('#bg0')" d="M0,3 L0,21 A3,3 0 0,0 3,24 L21,24 A3,3 0 0,0 24,21 L24,3 A3,3 0 0,0 21,0 L3,0 A3,3 0 0,0 0,3"></path>
<path fill="url('#bg1')" d="M0,3 L0,21 A3,3 0 0,0 3,24 L21,24 A3,3 0 0,0 24,21 L24,3 A3,3 0 0,0 21,0 L3,0 A3,3 0 0,0 0,3"></path>
<path fill="white" d="M12,20A7,7 0 0,1 5,13A7,7 0 0,1 12,6A7,7 0 0,1 19,13A7,7 0 0,1 12,20M12,4A9,9 0 0,0 3,13A9,9 0 0,0 12,22A9,9 0 0,0 21,13A9,9 0 0,0 12,4M12.5,8H11V14L15.75,16.85L16.5,15.62L12.5,13.25V8M7.88,3.39L6.6,1.86L2,5.71L3.29,7.24L7.88,3.39M22,5.72L17.4,1.86L16.11,3.39L20.71,7.25L22,5.72Z" />
</svg>